<svg xmlns="http://www.w3.org/2000/svg" width="63.743" height="73.402" viewBox="0 0 63.743 73.402"><g transform="translate(-137.379 -546.707)"><g transform="translate(143.028 564.414)"><g transform="translate(10.972 0.586)"><path d="M49.615,36.139a4.955,4.955,0,0,0-2.2.519,4.973,4.973,0,0,0-8.14-1.927,4.969,4.969,0,0,0-5.359-1.009v-8.8a4.982,4.982,0,1,0-9.963,0V39.167c-2.244.115-5.568.851-5.568,5.553,0,3.51,4.2,11.176,8.482,12.153a15.31,15.31,0,0,0,12.407,6.349c8.595,0,15.327-6.459,15.327-14.7a1.536,1.536,0,0,0-3.071,0c0,6.523-5.384,11.633-12.257,11.633A12.247,12.247,0,0,1,29.08,54.683,1.368,1.368,0,0,0,29,54.555,12.167,12.167,0,0,1,27.024,47.9V24.921a1.911,1.911,0,1,1,3.823,0V43.68a1.536,1.536,0,0,0,3.071,0V38.321a1.913,1.913,0,0,1,3.825-.014s0,.01,0,.014V43.68a.7.7,0,0,0,.02.181,1.526,1.526,0,0,0,3.036-.026.754.754,0,0,0,.011-.105c0-.016,0-.034,0-.05V38.306a1.911,1.911,0,0,1,3.823.014V41.08c0,.014,0,.027,0,.042V43.68a.876.876,0,0,0,.023.213,1.527,1.527,0,0,0,3.031-.036.739.739,0,0,0,.013-.13c0-.015,0-.031,0-.046V41.1a1.912,1.912,0,0,1,3.824.021v1.272a1.536,1.536,0,1,0,3.071,0V41.122A4.989,4.989,0,0,0,49.615,36.139ZM21.456,44.72c0-1.554.251-2.3,2.5-2.47V47.9a15.329,15.329,0,0,0,.332,3.172C22.768,49.043,21.456,46.39,21.456,44.72Z" transform="translate(-13.855 -8.114)" fill="#fff"/><path d="M34.7,24.024a1.535,1.535,0,1,0,2.228,2.11,10.743,10.743,0,1,0-15.848-.267,1.535,1.535,0,0,0,2.3-2.034,7.67,7.67,0,1,1,11.319.191Z" transform="translate(-13.856 -3.472)" fill="#fff"/><path d="M37.679,23.637A1.536,1.536,0,0,0,39.754,23,15.275,15.275,0,1,0,17.9,28.659a1.535,1.535,0,1,0,1.68-2.571,12.243,12.243,0,0,1-5.516-10.973A12.2,12.2,0,1,1,37.04,21.561,1.537,1.537,0,0,0,37.679,23.637Z" transform="translate(-10.972 -0.586)" fill="#fff"/></g></g><g transform="translate(139.5 572)"><line x2="13" transform="translate(3 5.828)" fill="none" stroke="#fff" stroke-linecap="round" stroke-width="3"/><line x2="8" transform="translate(0 6) rotate(45)" fill="none" stroke="#fff" stroke-linecap="round" stroke-width="3"/><line x2="8" transform="translate(0 5.657) rotate(-45)" fill="none" stroke="#fff" stroke-linecap="round" stroke-width="3"/></g><g transform="translate(174.828 548.828) rotate(90)"><line x2="13" transform="translate(3 5.828)" fill="none" stroke="#fff" stroke-linecap="round" stroke-width="3"/><line x2="8" transform="translate(0 6) rotate(45)" fill="none" stroke="#fff" stroke-linecap="round" stroke-width="3"/><line x2="8" transform="translate(0 5.657) rotate(-45)" fill="none" stroke="#fff" stroke-linecap="round" stroke-width="3"/></g><g transform="translate(183 572)"><line x1="13" transform="translate(0 5.828)" fill="none" stroke="#fff" stroke-linecap="round" stroke-width="3"/><line x2="8" transform="translate(16 6) rotate(135)" fill="none" stroke="#fff" stroke-linecap="round" stroke-width="3"/><line x2="8" transform="translate(16 5.657) rotate(-135)" fill="none" stroke="#fff" stroke-linecap="round" stroke-width="3"/></g></g></svg>