<svg xmlns="http://www.w3.org/2000/svg" width="600" height="138.47"><defs><style>.cls-1{fill:#32b6d0}.cls-2{fill:#53575a}</style></defs><g id="Layer_2" data-name="Layer 2"><g id="Layer_1-2" data-name="Layer 1"><path class="cls-1" d="M9.17 62.2a34.73 34.73 0 0 0 6.39 21.61c8.65 12 25.24 18 44.46 14.29a70 70 0 0 0 12.84-3.89c-1.83.3-3.74.59-5.58.73a53.79 53.79 0 0 1-21.57-2.27A40.58 40.58 0 0 1 25 78.1a39.08 39.08 0 0 1-7.1-23.59c.15-9.09 3-18.54 8.37-27.48.81-1.32 1.61-2.56 2.49-3.88C17.17 33.85 9.54 48 9.17 62.2z"/><path class="cls-1" d="M31.11 28.42a49.89 49.89 0 0 0-7.56 24.33c-.36 15.89 8.59 29.52 25 34.8a46.29 46.29 0 0 0 11.82 2.12c-1.54-.59-3.08-1.17-4.63-1.9a39.75 39.75 0 0 1-14.8-12.24 38.84 38.84 0 0 1-7.11-24 56 56 0 0 1 8.07-26.62A67.84 67.84 0 0 1 62.37 2.64c1.32-1 2.71-1.83 4-2.64a65.34 65.34 0 0 0-35.26 28.42zm26.56 108.94a69.71 69.71 0 0 0 26.12-11.13c15.71-11 26.57-27.84 27-44.91a39 39 0 0 0-1.32-11.06c-.08 1.68-.3 3.37-.52 5A57.91 57.91 0 0 1 101.18 96a76.4 76.4 0 0 1-21.49 22.78 78.33 78.33 0 0 1-28.55 12.39 58.25 58.25 0 0 1-29.2-1.17c-1.32-.44-2.57-.88-3.82-1.39 9.25 8.21 23.48 11.94 39.55 8.79z"/><path class="cls-1" d="M24.51 125.13a52.83 52.83 0 0 0 25.83 1.17C68.31 122.78 86 111.21 96 94.58a57.22 57.22 0 0 0 5.29-11.5c-1 1.61-2.13 3.15-3.3 4.76a73.3 73.3 0 0 1-17.54 16.7 77.89 77.89 0 0 1-29 12.46 58.43 58.43 0 0 1-28.33-1.1 40 40 0 0 1-21.07-14.73c-.73-1-1.39-2-2-3.15 2.22 12.46 10.74 22.71 24.46 27.11z"/><path class="cls-1" d="M6.82 97.66a36 36 0 0 0 18.57 13.11c15.33 4.91 35.14 1.68 52-10.11a73.37 73.37 0 0 0 10.51-8.87c-1.68 1.1-3.37 2.2-5.13 3.15a76.26 76.26 0 0 1-22.53 8.36 57.56 57.56 0 0 1-28.62-1.25 40.32 40.32 0 0 1-20.47-14.28 38.75 38.75 0 0 1-7.33-24.33c.07-1.39.14-2.71.29-4-5.58 13.31-5.06 27.45 2.71 38.22z"/><path class="cls-2" d="M162.23 77.44h-24.8a1.13 1.13 0 0 1-1.1-1.1v-52.9a1.14 1.14 0 0 1 1.1-1.17h2.94a1.15 1.15 0 0 1 1.17 1.17v49.75h20.62c1.54 0 1.1 2.34 1.1 3.15a1 1 0 0 1-1.03 1.1zm46.89 0h-29.06a1.13 1.13 0 0 1-1.1-1.1v-52.9a1.14 1.14 0 0 1 1.1-1.17h27.37c1.54 0 1.1 2.35 1.1 3.15a1.12 1.12 0 0 1-1.1 1.1h-23.26V46H203c1.69 0 1.25 2.12 1.25 3.15a1.17 1.17 0 0 1-1.25 1.1h-18.83v22.94h25c1.54 0 1.1 2.27 1.1 3.15a1.13 1.13 0 0 1-1.1 1.1zm57.45 0h-3.08A2.46 2.46 0 0 1 261 76l-29.94-46.84v47.25c0 1.47-2.2 1.1-3.16 1.1a1.13 1.13 0 0 1-1.1-1.1V23.52a1.15 1.15 0 0 1 1.1-1.18h3.3c1.47 0 1.62.22 2.43 1.4l29.79 46.81V23.44c0-1.68 2.2-1.17 3.22-1.17a1.09 1.09 0 0 1 1.1 1.17v52.9a1.25 1.25 0 0 1-1.17 1.1zm33 .66a30.64 30.64 0 0 1-12.33-2.57c-.95-.44-1.39-.66-1.39-1.76v-2.49c0-.73.29-1.32 1.1-1.32a3 3 0 0 1 1.39.66 22.87 22.87 0 0 0 12.11 3.52c6.31 0 11.45-3.3 11.45-9.74 0-5.65-3-7.48-7.49-10.48l-10.34-7c-4.33-3-7.41-6.52-7.41-11.8a11.62 11.62 0 0 1 4-9.23C294.31 22.64 298.2 22 303 22c2.13 0 12.4.51 12.4 3.81v2.12c0 .66-.3 1.17-1 1.17a2.1 2.1 0 0 1-1-.44 23.14 23.14 0 0 0-10.49-3c-5.36 0-11 2.64-11 8.43 0 3.81 2.5 6.3 5.51 8.35l10.9 7.56a24.12 24.12 0 0 1 6.24 5.28 13.45 13.45 0 0 1 2.64 8.28c.07 9.74-8.22 14.58-17.61 14.58zm69.63-51.51h-16.34v49.82a1.12 1.12 0 0 1-1.1 1.1h-2.94a1.13 1.13 0 0 1-1.1-1.1V26.59h-16.36c-1.54 0-1.1-2.19-1.1-3.07a1.15 1.15 0 0 1 1.1-1.18h37.86c1.54 0 1.1 2.35 1.1 3.15a1.12 1.12 0 0 1-1.1 1.1zm36.25 52.24c-18.05 0-25.32-12.68-25.32-28.5s7.34-28.65 25.47-28.65c18.34 0 25.09 13 25.09 28.94s-7.26 28.21-25.24 28.21zm.22-52.9c-15.12 0-20.25 11.43-20.25 24.33s4.91 24.47 20.1 24.47 20-11.65 20-24.4-4.77-24.4-19.81-24.4zm77.12 51.51h-3.23a1.15 1.15 0 0 1-.88-.44L456 50.92a1.72 1.72 0 0 1-.44-.52 3 3 0 0 0-1.39-.14v26.08c0 1.61-3.16 1.1-4.11 1.1a1.13 1.13 0 0 1-1.1-1.1v-52.9a1.14 1.14 0 0 1 1.1-1.17h12.84c4.84 0 9.47.59 13.06 3.88a13.81 13.81 0 0 1 4.33 10.33c0 10-7.85 14.36-17.39 14.36l21.13 24.25a1.53 1.53 0 0 1 .59 1.17c0 1-1 1.18-1.83 1.18zm-19.87-50.85h-8.73v20.22h8.73c6.9 0 12.18-3.15 12.18-10.25s-5.43-9.97-12.18-9.97zm67.51 50.85h-29.06a1.13 1.13 0 0 1-1.1-1.1v-52.9a1.14 1.14 0 0 1 1.1-1.17h27.3c1.54 0 1.1 2.35 1.1 3.15a1.13 1.13 0 0 1-1.1 1.1h-23.19V46h18.86c1.68 0 1.17 2.12 1.17 3.15a1.14 1.14 0 0 1-1.17 1.1h-18.86v22.94h24.95c1.54 0 1.1 2.27 1.1 3.15a1.14 1.14 0 0 1-1.1 1.1zm18.12.51c-1.61 0-2.35-.59-2.35-2.13s.81-2.12 2.28-2.12 2.42.66 2.42 2.12-.81 2.18-2.35 2.18zm-399.82 38.39h-2.57c-.07 0-.22-.08-.22-.15l-6.09-8.13c-.07-.07-.14-.22-.22-.29a2.24 2.24 0 0 0-.73 0V116a.32.32 0 0 1-.29.3h-2.06a.31.31 0 0 1-.29-.3V98.68a.3.3 0 0 1 .29-.29h2.06a.31.31 0 0 1 .29.29v7.4h.59l6.38-7.55a.28.28 0 0 1 .22-.07h2.2c.22 0 .29 0 .29.22v.07c0 .15-6.23 7.11-6.82 7.77l2.64 3.66c1 1.39 2.06 2.79 3.16 4.18.14.22 1.39 1.68 1.39 1.83s-.15.15-.22.15zm15.12.44c-2.65 0-4.77-.59-6.53-2.64s-1.91-4.18-1.91-6.59a10.44 10.44 0 0 1 1.91-6.74c1.76-2.13 4-2.64 6.75-2.64 5.79 0 8.29 3.88 8.29 9.3 0 5.64-2.57 9.31-8.51 9.31zm0-16.71a5.25 5.25 0 0 0-4.41 2.2 8.65 8.65 0 0 0-1.32 5.2 8.63 8.63 0 0 0 1.32 5.2 5.18 5.18 0 0 0 4.48 2.2c4.33 0 5.72-3.59 5.72-7.4s-1.46-7.4-5.79-7.4zm31.25 16.27h-1.54c-.8 0-1-.59-1.39-1.25l-8.44-13.84V116a.32.32 0 0 1-.29.3H182a.32.32 0 0 1-.29-.3V98.68a.31.31 0 0 1 .29-.29h2.42a.65.65 0 0 1 .59.36l8.44 14V98.61a.32.32 0 0 1 .29-.3h1.4a.32.32 0 0 1 .29.3V116c-.07.22-.15.37-.37.37zm21.72-16h-5.13V116a.32.32 0 0 1-.3.3h-2a.31.31 0 0 1-.29-.3v-15.71H204a.31.31 0 0 1-.29-.29v-1.32a.31.31 0 0 1 .29-.29h12.84a.31.31 0 0 1 .3.29V100c.07.15-.08.29-.3.29zm19.74 16h-1.83c-.15 0-.22-.08-.3-.22l-2.05-6.3H226l-2.05 6.3c0 .14-.15.22-.29.22H222c-.29 0-.36-.08-.36-.37 0-.07.07-.22.07-.29l5.8-16.34c.51-1.54.66-1.24 2.42-1.24 1 0 1.1.29 1.39 1.17l5.58 16.33.07.22v.18c.03.26-.19.34-.41.34zM229.22 100l-2.64 8.06h5.21zm28.55 16.34h-2.57c-.08 0-.22-.08-.22-.15l-6.09-8.13c-.08-.07-.15-.22-.22-.29a2.3 2.3 0 0 0-.74 0V116a.31.31 0 0 1-.29.3h-2a.32.32 0 0 1-.3-.3V98.68a.31.31 0 0 1 .3-.29h2a.3.3 0 0 1 .29.29v7.4h.59l6.38-7.55a.29.29 0 0 1 .22-.07h2.21c.22 0 .29 0 .29.22v.07c0 .15-6.24 7.11-6.82 7.77l2.64 3.66c1 1.39 2.05 2.79 3.15 4.18.15.22 1.4 1.68 1.4 1.83s-.15.15-.22.15zm20.54-16h-5.14V116a.31.31 0 0 1-.29.3h-2a.31.31 0 0 1-.29-.3v-15.71h-5.14a.3.3 0 0 1-.29-.29v-1.32a.3.3 0 0 1 .29-.29h12.84a.3.3 0 0 1 .29.29V100a.3.3 0 0 1-.27.29zm17.68 16h-8.8a.31.31 0 0 1-.29-.3V98.68a.3.3 0 0 1 .29-.29h2.05a.31.31 0 0 1 .3.29v15.75H296a.32.32 0 0 1 .3.3V116a.32.32 0 0 1-.3.3zm10.86 0h-2a.32.32 0 0 1-.29-.3V98.68a.31.31 0 0 1 .29-.29h2.06a.31.31 0 0 1 .29.29V116c-.07.15-.15.3-.37.3zm24.14 0h-1.54c-.8 0-1-.59-1.39-1.25l-8.51-13.84V116a.32.32 0 0 1-.3.3h-1.39a.31.31 0 0 1-.29-.3V98.68a.3.3 0 0 1 .29-.29h2.42a.66.66 0 0 1 .59.36l8.44 14V98.61a.31.31 0 0 1 .29-.3h1.4a.32.32 0 0 1 .3.3V116a.34.34 0 0 1-.3.34zm14.31.22a11.84 11.84 0 0 1-4-.66c-.29-.15-.51-.22-.51-.59v-1.61c0-.22.07-.29.29-.29a.62.62 0 0 1 .44.22 7.09 7.09 0 0 0 3.67 1c1.76 0 3.23-.88 3.23-2.71a2.89 2.89 0 0 0-1.69-2.71l-3.16-2.2a4.58 4.58 0 0 1-2.42-4.1c0-3.22 2.5-4.69 5.51-4.69a9.85 9.85 0 0 1 3.81.73c.3.15.3.15.3.52V101c0 .22 0 .44-.23.44s-.29-.15-.44-.22a5.49 5.49 0 0 0-3.37-1c-1.61 0-3 .73-3 2.49a2.68 2.68 0 0 0 1.47 2.34l3.3 2.28c1.61 1.09 2.79 2.27 2.79 4.39-.07 3.22-2.86 4.84-6 4.84zm25.68-.22h-9.9a.32.32 0 0 1-.3-.3V98.68a.31.31 0 0 1 .3-.29h9.32a.27.27 0 0 1 .29.29V100a.27.27 0 0 1-.29.29h-7v5.5h5.6a.31.31 0 0 1 .3.29v1.32a.31.31 0 0 1-.3.29h-5.65v6.67h7.56a.27.27 0 0 1 .29.29V116a.26.26 0 0 1-.22.37zm22.53 0H392c-.81 0-1-.59-1.47-1.25l-8.44-13.84V116a.31.31 0 0 1-.29.3h-1.39a.32.32 0 0 1-.3-.3V98.68a.31.31 0 0 1 .3-.29h2.42a.63.63 0 0 1 .58.36l8.44 14V98.61a.32.32 0 0 1 .29-.3h1.4a.31.31 0 0 1 .29.3V116a.33.33 0 0 1-.32.34zm30.23.44c-2.64 0-4.77-.59-6.53-2.64s-1.91-4.18-1.91-6.59a10.5 10.5 0 0 1 1.91-6.74c1.76-2.13 4-2.64 6.75-2.64 5.8 0 8.29 3.88 8.29 9.3.07 5.64-2.57 9.31-8.51 9.31zm.07-16.71a5.25 5.25 0 0 0-4.4 2.2 8.65 8.65 0 0 0-1.32 5.2 8.63 8.63 0 0 0 1.32 5.2 5.18 5.18 0 0 0 4.48 2.2c4.33 0 5.72-3.59 5.72-7.4s-1.47-7.4-5.8-7.4zm31.26 16.27h-1.54c-.81 0-1-.59-1.39-1.25l-8.44-13.84V116a.32.32 0 0 1-.3.3H442a.31.31 0 0 1-.29-.3V98.68a.3.3 0 0 1 .29-.29h2.42a.66.66 0 0 1 .59.36l8.44 14V98.61a.31.31 0 0 1 .29-.3h1.39a.32.32 0 0 1 .3.3V116c-.07.19-.21.34-.36.34zm19.81 0h-8.8a.32.32 0 0 1-.3-.3V98.68a.31.31 0 0 1 .3-.29h2.05a.3.3 0 0 1 .29.29v15.75h6.46a.32.32 0 0 1 .3.3V116a.32.32 0 0 1-.3.34zm10.86 0h-2.05a.32.32 0 0 1-.3-.3V98.68a.31.31 0 0 1 .3-.29h2.05a.3.3 0 0 1 .29.29V116a.31.31 0 0 1-.29.34zm24.14 0h-1.54c-.81 0-1-.59-1.39-1.25l-8.44-13.84V116a.32.32 0 0 1-.3.3h-1.39a.31.31 0 0 1-.29-.3V98.68a.3.3 0 0 1 .29-.29h2.42a.65.65 0 0 1 .59.36l8.44 14V98.61a.31.31 0 0 1 .29-.3H510a.32.32 0 0 1 .3.3V116c-.12.19-.3.34-.42.34zm20.91 0h-9.9a.32.32 0 0 1-.3-.3V98.68a.31.31 0 0 1 .3-.29h9.32a.27.27 0 0 1 .29.29V100a.27.27 0 0 1-.29.29h-7.05v5.5h5.65a.31.31 0 0 1 .3.29v1.32a.31.31 0 0 1-.3.29h-5.65v6.67h7.56a.27.27 0 0 1 .29.29V116a.26.26 0 0 1-.22.37zm68.76-49.23h-14.39c.08 2.27.15 4.54 1.47 6.44a7.1 7.1 0 0 0 6.09 2.86 9.13 9.13 0 0 0 4.92-1.47 3 3 0 0 1 .73-.29c.52 0 .37.95.37 1.25 0 1.68-5.06 2.2-6.24 2.2-6.31 0-9.9-4.25-9.9-10.33 0-5.5 3.15-10.63 9.17-10.63a8.1 8.1 0 0 1 8.23 8.35v1a.45.45 0 0 1-.44.59zm-7.93-8.21c-3.74 0-6.09 3-6.38 6.52h12.4c-.22-3.66-2.13-6.52-6.02-6.52zm-18 18.9c-1 0-.15-1-.81-1a1.26 1.26 0 0 0-.58.22 10.92 10.92 0 0 1-5 1.17c-6 0-9.39-4.62-9.39-10.26s3.44-10.69 9.61-10.69a8.7 8.7 0 0 1 4.55 1.15.82.82 0 0 0 .44.14c.22 0 .29-.14.29-.36v-8.72c0-.81 1.47-.51 2-.51a.5.5 0 0 1 .52.51v27.84c-.15.73-1.25.51-1.69.51zm-1-16.19c0-2.12-3.3-2.56-4.85-2.56-5.21 0-7.55 3.81-7.55 8.64s2.27 8.72 7.55 8.72c1.69 0 4.85-.44 4.85-2.71z"/></g></g></svg>