<svg xmlns="http://www.w3.org/2000/svg" width="600" height="124.53"><defs><style>.cls-1{fill:#32b6d0}.cls-2{fill:#585a5b}</style></defs><g id="Layer_2" data-name="Layer 2"><g id="Layer_1-2" data-name="Layer 1"><path class="cls-1" d="M8.34 55.87a31.27 31.27 0 0 0 5.73 19.49c7.82 10.85 22.73 16.27 40 12.83a56.63 56.63 0 0 0 11.57-3.55 43 43 0 0 1-5 .63 49.67 49.67 0 0 1-19.39-2 34.7 34.7 0 0 1-25-34.4 50 50 0 0 1 7.51-24.71c.73-1.14 1.46-2.29 2.29-3.44-10.62 9.61-17.4 22.33-17.71 35.15z"/><path class="cls-1" d="M28 25.43a46 46 0 0 0-6.78 21.89C21 61.61 29 73.91 43.78 78.7a40.67 40.67 0 0 0 10.63 2c-1.46-.52-2.81-1-4.17-1.67A35.35 35.35 0 0 1 36.9 68a35.1 35.1 0 0 1-6.36-21.57 50 50 0 0 1 7.3-24 59.84 59.84 0 0 1 18.34-20c1.26-.84 2.4-1.67 3.65-2.4A58 58 0 0 0 28 25.43zm23.87 98.09a63.41 63.41 0 0 0 23.45-10c14.18-9.91 23.88-25.13 24.29-40.45a33.48 33.48 0 0 0-1.14-9.9 36.33 36.33 0 0 1-.47 4.59 50.5 50.5 0 0 1-7 18.55 66.75 66.75 0 0 1-19.39 20.43A69.08 69.08 0 0 1 46 117.89a52.78 52.78 0 0 1-26.27-1l-3.44-1.25c8.34 7.51 21.16 10.74 35.65 7.92z"/><path class="cls-1" d="M22.1 112.58a46.88 46.88 0 0 0 23.14 1 62.93 62.93 0 0 0 41-28.56A51.28 51.28 0 0 0 91 74.74c-.94 1.46-1.88 2.81-2.92 4.27a70 70 0 0 1-15.74 15.12 66.81 66.81 0 0 1-26.06 11.15 53.19 53.19 0 0 1-25.43-.94 36.8 36.8 0 0 1-19-13.24L0 88.29c2.08 11.05 9.69 20.33 22.1 24.29z"/><path class="cls-1" d="M6.15 87.77a32 32 0 0 0 16.68 11.78c13.76 4.45 31.58 1.45 46.8-9.07a58.59 58.59 0 0 0 9.38-8 41.74 41.74 0 0 1-4.58 2.82 66.82 66.82 0 0 1-20.23 7.5 51.91 51.91 0 0 1-25.74-1.14A36.92 36.92 0 0 1 10 78.8a36 36 0 0 1-6.66-21.89c0-1.25.1-2.39.2-3.64-4.9 12.09-4.37 24.81 2.61 34.5z"/><path class="cls-2" d="M132.7 88.29L127.28 105a1.48 1.48 0 0 1-.21.62c-.21.53-.63.53-1.15.53h-1.15c-1 0-1.14-.53-1.46-1.46L118 88.29v-.21c0-.31.21-.31.42-.31h2.08c.1 0 .31.1.31.21l4.8 16 5-16c.11-.11.11-.21.31-.21h1.36c.31 0 .52 0 .52.31-.1 0-.1.11-.1.21zm10.63 17.62h-2.09a.28.28 0 0 1-.31-.32V88a.28.28 0 0 1 .31-.31h2.09a.27.27 0 0 1 .31.31v17.61a.28.28 0 0 1-.31.3zm14.49.21a12.48 12.48 0 0 1-4-.63c-.32-.1-.52-.21-.52-.52v-1.67a.27.27 0 0 1 .31-.31.54.54 0 0 1 .42.21 6.43 6.43 0 0 0 3.64 1c1.78 0 3.24-.94 3.24-2.82 0-1.45-.63-2-1.67-2.71l-3.23-2.18a4.67 4.67 0 0 1-2.51-4.17c0-3.34 2.51-4.69 5.53-4.69a9.8 9.8 0 0 1 3.86.72c.31.21.31.21.31.53v1.56c0 .21 0 .42-.21.42a.57.57 0 0 1-.42-.21 5.48 5.48 0 0 0-3.33-1c-1.57 0-3 .73-3 2.5a2.85 2.85 0 0 0 1.46 2.39l3.34 2.3c1.67 1.14 2.81 2.29 2.81 4.48 0 3.13-2.81 4.8-6 4.8zm18-.21h-2.08a.29.29 0 0 1-.32-.32V88a.28.28 0 0 1 .32-.31h2.08a.27.27 0 0 1 .31.31v17.61a.33.33 0 0 1-.28.3zm18.24.41c-2.71 0-4.79-.62-6.56-2.71a10.24 10.24 0 0 1-2-6.67c0-2.5.31-4.9 2-6.77 1.77-2.19 4.06-2.71 6.77-2.71 5.84 0 8.44 3.85 8.44 9.38 0 5.84-2.6 9.48-8.65 9.48zm.11-16.88a5.37 5.37 0 0 0-4.48 2.19 8.32 8.32 0 0 0-1.36 5.21 8.63 8.63 0 0 0 1.36 5.31 5 5 0 0 0 4.48 2.19c4.38 0 5.83-3.65 5.83-7.5s-1.53-7.4-5.8-7.4zm31.58 16.47h-1.56c-.84 0-1-.63-1.46-1.25l-8.55-14v15a.27.27 0 0 1-.31.31h-1.46a.27.27 0 0 1-.31-.31V88.08a.27.27 0 0 1 .31-.31h2.4c.31 0 .41.1.62.42l8.57 14.17V88.08a.27.27 0 0 1 .31-.31h1.36a.27.27 0 0 1 .31.31v17.62c.11.1.02.21-.2.21zm35.86-.63a10.52 10.52 0 0 1-4.38.84c-5.63 0-9.38-3.13-9.38-9s3.65-9.69 9.49-9.69a10.17 10.17 0 0 1 4.58.93c.42.21.52.21.52.73v1.26c0 .2 0 .41-.2.41s-.42-.21-.53-.21a7.39 7.39 0 0 0-3.85-1c-4.8 0-7.09 3.23-7.09 7.82 0 4.27 2.5 7 6.77 7a9.56 9.56 0 0 0 4.49-1.14c.1 0 .21-.11.31-.11.31 0 .21 1.36.21 1.57-.11.41-.42.41-.94.62zm23.35.63h-1.88c-.1 0-.21-.11-.31-.21l-2.08-6.36h-6.47l-2.08 6.36c0 .1-.11.21-.31.21h-1.57c-.31 0-.42 0-.42-.32 0-.1.11-.2.11-.31l5.84-16.57c.52-1.57.62-1.25 2.39-1.25 1.05 0 1.15.31 1.36 1.25l5.63 16.57.1.21v.1c.21.21-.1.32-.31.32zm-7.4-16.58L275 97.46h5.32zm28.77 16.58h-2.5c-.11 0-.21 0-.21-.11l-5.84-8c-.31-.42-.73-.32-1.25-.32v8.13a.28.28 0 0 1-.31.32h-2.09a.28.28 0 0 1-.31-.32V88a.27.27 0 0 1 .31-.31h5.63c1.57 0 3 .2 4.07 1.56a4.9 4.9 0 0 1 1 3.13c0 2.91-2.09 4.58-4.9 4.58l6.46 8.34c.11.11.21.21.21.31a.28.28 0 0 1-.31.32zm-7.3-16.47h-2.5v6.25h2c2.19 0 3.54-.73 3.54-3.13a2.77 2.77 0 0 0-3.01-3.12zm26.48 16.47h-10a.34.34 0 0 1-.31-.32V88a.27.27 0 0 1 .31-.31H325a.27.27 0 0 1 .31.31v1.35a.34.34 0 0 1-.31.32h-7.09v5.62h5.73a.28.28 0 0 1 .31.32v1.35a.27.27 0 0 1-.31.31h-5.73V104h7.71a.34.34 0 0 1 .32.31v1.36c-.21.1-.32.21-.42.21zm31.79 0h-10a.28.28 0 0 1-.31-.32V88a.28.28 0 0 1 .31-.31h9.49a.27.27 0 0 1 .31.31v1.35a.34.34 0 0 1-.31.32h-7.09v5.62h5.74a.28.28 0 0 1 .31.32v1.35a.28.28 0 0 1-.31.31h-5.74V104h7.72a.34.34 0 0 1 .31.31v1.36a.57.57 0 0 1-.42.21zm22 0h-2.61c-.1 0-.21 0-.21-.11l-4.79-7.71-4.69 7.71c-.11.11-.11.11-.21.11h-1.88c-.21 0-.42 0-.42-.32a.81.81 0 0 1 .21-.41l5.74-8.65-5.63-8c-.11-.21-.21-.31-.21-.52s.21-.21.31-.21h2.61a.39.39 0 0 1 .21.1l4.48 7 4.27-7c.11-.1.11-.1.21-.1h1.77c.21 0 .31.1.31.21a.52.52 0 0 1-.2.41l-5.32 7.93 6.15 8.75a1.52 1.52 0 0 1 .31.52c0 .21-.21.32-.41.32zm14.07-7.3H391v7a.28.28 0 0 1-.31.32h-2.09a.28.28 0 0 1-.31-.32V88a.27.27 0 0 1 .31-.31h5.11c3.44 0 5.84 1.66 5.84 5.31.1 4-2.5 5.63-6.15 5.63zm-.21-9H391v7h2c2.4 0 3.86-1 3.86-3.44s-1.46-3.54-3.65-3.54zm25.33 16.26h-10a.28.28 0 0 1-.31-.32V88a.27.27 0 0 1 .31-.31h9.38a.28.28 0 0 1 .32.31v1.35a.29.29 0 0 1-.32.32h-7.08v5.62h5.73a.28.28 0 0 1 .31.32v1.35a.27.27 0 0 1-.31.31h-5.73V104h7.71a.33.33 0 0 1 .31.31v1.36c0 .1-.21.21-.31.21zm21.68 0h-2.5c-.1 0-.21 0-.21-.11l-5.84-8c-.31-.42-.73-.32-1.25-.32v8.13a.28.28 0 0 1-.31.32H428a.34.34 0 0 1-.32-.32V88a.28.28 0 0 1 .32-.31h5.62c1.57 0 3 .2 4.07 1.56a4.9 4.9 0 0 1 1 3.13c0 2.91-2.08 4.58-4.9 4.58l6.47 8.34c.1.11.2.21.2.31a.28.28 0 0 1-.31.32zm-7.3-16.47h-2.5v6.25h2c2.19 0 3.55-.73 3.55-3.13a2.77 2.77 0 0 0-3.02-3.08zm27.11.21h-5.22v15.94a.28.28 0 0 1-.31.32h-2a.28.28 0 0 1-.31-.32v-15.9H447a.29.29 0 0 1-.32-.32V88a.28.28 0 0 1 .32-.31h13a.27.27 0 0 1 .31.31v1.35c-.1.21-.21.32-.31.32zm12.3 16.47a13.7 13.7 0 0 1-4.07-.63c-.31-.1-.52-.21-.52-.52v-1.63a.27.27 0 0 1 .31-.3.52.52 0 0 1 .42.21 6.46 6.46 0 0 0 3.65 1c1.77 0 3.23-.94 3.23-2.82 0-1.45-.63-2-1.67-2.71l-3.23-2.18a4.59 4.59 0 0 1-2.4-4.17c0-3.34 2.51-4.69 5.53-4.69a9.76 9.76 0 0 1 3.85.72c.32.21.32.21.32.53v1.56c0 .21 0 .42-.21.42a.57.57 0 0 1-.42-.21 5.48 5.48 0 0 0-3.33-1c-1.57 0-3 .73-3 2.5a2.85 2.85 0 0 0 1.46 2.39l3.34 2.3c1.67 1.14 2.81 2.29 2.81 4.48 0 3.13-2.92 4.8-6 4.8zM141.56 69h-22.62a1 1 0 0 1-1-.94V19.81a1 1 0 0 1 1-1h2.71a1.07 1.07 0 0 1 1.14 1v45.44h18.87c1.46 0 1 2.09 1 2.92a1.25 1.25 0 0 1-1.1.83zm42.73 0h-26.47a1 1 0 0 1-1-.94V19.81a1 1 0 0 1 1-1h24.91c1.36 0 1 2.09 1 2.82a1 1 0 0 1-1 .94h-21.16v17.77h17.2c1.56 0 1.15 2 1.15 2.81 0 .63-.52.94-1.15.94h-17.2v21h22.72c1.46 0 1.05 2.08 1.05 2.91a1 1 0 0 1-1.05 1zm52.44 0h-2.82a2.3 2.3 0 0 1-2.29-1.36l-27.31-42.73v43.16c0 1.35-2.09.94-2.92.94a1 1 0 0 1-1-.94V19.81a1 1 0 0 1 1-1h3c1.36 0 1.46.21 2.19 1.25l27.1 42.74V19.81c0-1.46 2.09-1 3-1a1 1 0 0 1 1 1v48.26a1 1 0 0 1-1 .94zm30.12.62a29.77 29.77 0 0 1-11.26-2.29c-.83-.42-1.25-.63-1.25-1.57v-2.28c0-.73.21-1.25 1-1.25.52 0 .93.42 1.25.63a20.61 20.61 0 0 0 11.1 3.14c5.73 0 10.42-3 10.42-8.86 0-5.1-2.71-6.77-6.78-9.59L262 41.17c-4-2.71-6.77-5.94-6.77-10.73a10.91 10.91 0 0 1 3.6-8.44c3.33-2.91 6.77-3.54 11.25-3.54 2 0 11.26.42 11.26 3.44v2c0 .63-.21 1-.94 1a2 2 0 0 1-.94-.41 22.08 22.08 0 0 0-9.59-2.71c-4.89 0-10 2.39-10 7.71 0 3.44 2.29 5.73 5 7.61l10 6.88c2.08 1.46 4.17 2.81 5.63 4.79a12.39 12.39 0 0 1 2.39 7.51c0 8.86-7.5 13.34-16 13.34zm63.38-47.11h-14.91V68a1 1 0 0 1-1 .94h-2.71a1 1 0 0 1-1-.94V22.52h-14.99c-1.46 0-1-2.09-1-2.82a1 1 0 0 1 1-1h34.51c1.45 0 1 2.08 1 2.81a.87.87 0 0 1-.94 1.05zm33.15 47.74c-16.47 0-23-11.57-23-26.06S347 18 363.59 18s22.93 11.89 22.93 26.38-6.78 25.85-23.14 25.85zm.1-48.37c-13.76 0-18.45 10.42-18.45 22.2s4.48 22.31 18.35 22.31 18.24-10.63 18.24-22.2-4.38-22.3-18.14-22.3zM433.84 69h-2.92a1.08 1.08 0 0 1-.83-.42l-20.74-23.86-.42-.42a2.54 2.54 0 0 0-1.25-.1v23.87c0 1.46-2.92.94-3.75.94a1 1 0 0 1-1.05-.94V19.81a1 1 0 0 1 1.05-1h11.67c4.38 0 8.65.52 11.88 3.55a12.45 12.45 0 0 1 4 9.38c0 9.17-7.09 13.13-15.85 13.13L434.89 67a1.44 1.44 0 0 1 .52 1c.1.73-.84.94-1.57.94zm-18.13-46.48h-7.93V41h7.93c6.25 0 11.15-2.82 11.15-9.39s-5-9.09-11.15-9.09zM477.21 69h-26.48a1 1 0 0 1-1-.94V19.81a1 1 0 0 1 1-1h24.91c1.46 0 1.05 2.09 1.05 2.82a1 1 0 0 1-1.05.94h-21.16v17.77h17.2c1.57 0 1 2 1 2.81a1 1 0 0 1-1 .94h-17.2v21h22.73c1.46 0 1 2.08 1 2.91a1 1 0 0 1-1 1zm16.57.41c-1.46 0-2.19-.52-2.19-2s.73-2 2.09-2 2.19.63 2.19 1.88a1.83 1.83 0 0 1-2.09 2.13zm18.66-.1c-5.94 0-9.28-3.55-9.28-9.17s3.23-9.7 9.28-9.7c1 0 5.84.31 5.84 1.88V53c0 .21-.11.52-.42.52a1.54 1.54 0 0 1-.63-.2 9.93 9.93 0 0 0-4.58-1.15c-4.9 0-7.19 3.65-7.19 8s2.39 7.83 7.29 7.83a10.37 10.37 0 0 0 4.69-1.14c.11 0 .21-.11.42-.11.52 0 .31.84.31 1.15 0 1.15-4.79 1.46-5.73 1.46zm20.43.31c-6.15 0-8.55-4.17-8.55-9.59s2.3-9.59 8.45-9.59c5.94 0 8.54 4.07 8.54 9.49s-2.19 9.69-8.44 9.69zm0-17.72c-4.79 0-6.25 4.07-6.25 8s1.46 8 6.25 8 6.13-4 6.13-7.9-1.25-8.13-6.15-8.13zm19.91 17.51c-1.46 0-2.19-.52-2.19-2s.73-2 2.09-2 2.18.63 2.18 1.88a1.82 1.82 0 0 1-2.08 2.13zm23.45-.41c-.93 0-.1-.94-.83-.94-.21 0-.31.1-.42.1s-.21.11-.31.11a15.68 15.68 0 0 1-5.32 1 7.57 7.57 0 0 1-4.48-1.27c-1.67-1.25-1.87-2.91-1.87-4.79V51.29c0-.73 1.35-.53 1.77-.53a.5.5 0 0 1 .52.53v11.77c0 3.13 1.87 4.8 5.11 4.8 1.87 0 5-.31 5-2.61v-14c0-.73 1.35-.53 1.77-.53a.5.5 0 0 1 .52.53v17.2c0 .72-1 .52-1.46.52zm23.25 0h-1.88a.81.81 0 0 1-.41-.21l-7.51-8.86a.52.52 0 0 0-.42-.21c-.21 0-.21.21-.21.31v8.45a.56.56 0 0 1-.52.52h-1.25a.49.49 0 0 1-.52-.52v-25a.56.56 0 0 1 .52-.52h1.25a.48.48 0 0 1 .52.52v14.27c0 .21 0 .42.21.42a.55.55 0 0 0 .42-.21l7.51-7.09c.1-.11.2-.11.41-.11h1.57a.38.38 0 0 1 .41.42.54.54 0 0 1-.21.42l-7.19 6.67c-.1.1-.31.21-.31.42a.52.52 0 0 0 .21.41l7.29 8.55c.11.21.63.63.63.94a.48.48 0 0 1-.52.42z"/></g></g></svg>