<svg width="600" height="137.49" xmlns="http://www.w3.org/2000/svg"><g fill="#3bb4d2"><path d="M9.1 61.7a34.76 34.76 0 0 0 6.37 21.5c8.69 11.9 25.27 17.9 44.58 14.2A64.38 64.38 0 0 0 73 93.5a52.79 52.79 0 0 1-5.56.7A57 57 0 0 1 45.8 92a40.47 40.47 0 0 1-20.73-14.5A38.43 38.43 0 0 1 17.89 54c.1-9 3-18.4 8.39-27.3.81-1.3 1.62-2.6 2.53-3.8C17.08 33.6 9.4 47.6 9.1 61.7z"/><path d="M31 28.1a48.94 48.94 0 0 0-7.59 24.1c-.4 15.8 8.6 29.3 25.08 34.6a47.31 47.31 0 0 0 11.82 2.1A49 49 0 0 1 55.8 87a37.89 37.89 0 0 1-22-36c.2-8.7 3-17.9 8.08-26.5a69.94 69.94 0 0 1 20.6-21.9c1.31-.9 2.73-1.8 4-2.6A65.39 65.39 0 0 0 31 28.1zm26.72 108.3a68.41 68.41 0 0 0 26.19-11.1c15.77-10.9 26.59-27.7 27-44.6a38.69 38.69 0 0 0-1.31-11c-.11 1.7-.31 3.3-.51 5a57.5 57.5 0 0 1-7.78 20.5 74.53 74.53 0 0 1-21.64 22.6 77.82 77.82 0 0 1-28.61 12.3 58.36 58.36 0 0 1-29.22-1.1c-1.32-.4-2.53-.9-3.85-1.4 9.31 8.2 23.56 11.9 39.73 8.8z"/><path d="M24.46 124.2a52.45 52.45 0 0 0 25.88 1.1c18-3.5 35.69-15 45.7-31.5a52.75 52.75 0 0 0 5.26-11.4c-1 1.6-2.13 3.2-3.24 4.7a76.24 76.24 0 0 1-17.49 16.6 75.44 75.44 0 0 1-29 12.3 60 60 0 0 1-28.41-1.1A40.2 40.2 0 0 1 2 100.3c-.71-1-1.41-2.1-2-3.1 2.12 12.5 10.72 22.6 24.46 27z"/><path d="M6.67 96.9a35.72 35.72 0 0 0 18.6 13c15.37 4.9 35.29 1.7 52.17-10A75.89 75.89 0 0 0 88 91.1c-1.72 1.1-3.33 2.1-5.15 3.1a75.33 75.33 0 0 1-22.65 8.3C50 104.4 40 104 31.44 101.3A40 40 0 0 1 11 87.1a38.47 38.47 0 0 1-7.36-24.2 26 26 0 0 1 .3-4c-5.56 13.3-5.05 27.3 2.73 38z"/></g><path d="M163.06 76.2h-25.17a1.12 1.12 0 0 1-1.11-1.1V22a1.13 1.13 0 0 1 1.11-1.2h2.93A1.17 1.17 0 0 1 142 22v49.9h21c1.62 0 1.12 2.3 1.12 3.2.16.6-.45 1.1-1.06 1.1zm47.62 0h-29.52a1.11 1.11 0 0 1-1.11-1.1V22a1.13 1.13 0 0 1 1.11-1.2h27.7c1.52 0 1.11 2.3 1.11 3.2a1.11 1.11 0 0 1-1.11 1.1H185.3v19.6h19.11c1.72 0 1.21 2.2 1.21 3.2a1.13 1.13 0 0 1-1.21 1.1H185.3v23.1h25.28c1.62 0 1.11 2.2 1.11 3.2.1.4-.4.9-1.01.9zm58.23 0h-3.13a2.45 2.45 0 0 1-2.53-1.5l-30.33-47v47.5c0 1.5-2.22 1.1-3.23 1.1a1.12 1.12 0 0 1-1.12-1.1V22a1.14 1.14 0 0 1 1.12-1.2H233c1.52 0 1.62.2 2.43 1.4l30.22 47V22c0-1.7 2.23-1.2 3.34-1.2a1.13 1.13 0 0 1 1.11 1.2v53.1a1.28 1.28 0 0 1-1.21 1.1zm33.46.6c-3.84 0-9.1-.9-12.43-2.6-1-.4-1.42-.7-1.42-1.7V70c0-.8.31-1.3 1.11-1.3a2.72 2.72 0 0 1 1.42.7 23 23 0 0 0 12.33 3.5c6.37 0 11.63-3.3 11.63-9.8 0-5.6-3-7.5-7.58-10.5l-10.52-7c-4.34-3-7.48-6.6-7.48-11.9a11.75 11.75 0 0 1 4.15-9.3c3.64-3.2 7.58-3.9 12.43-3.9 2.23 0 12.54.5 12.54 3.8v2.2c0 .7-.31 1.2-1 1.2a2.18 2.18 0 0 1-1-.4 23.52 23.52 0 0 0-10.61-3c-5.36 0-11.12 2.7-11.12 8.5 0 3.8 2.53 6.3 5.56 8.4l11 7.6c2.32 1.6 4.65 3.1 6.27 5.3a13.64 13.64 0 0 1 2.73 8.3c-.1 9.5-8.5 14.4-18 14.4zm70.57-51.7h-16.58v50a1.12 1.12 0 0 1-1.12 1.1h-2.93a1.12 1.12 0 0 1-1.11-1.1v-50h-16.58c-1.62 0-1.11-2.2-1.11-3.1a1.13 1.13 0 0 1 1.11-1.2H373c1.51 0 1.11 2.3 1.11 3.2a1.29 1.29 0 0 1-1.17 1.1zm36.79 52.5c-18.29 0-25.67-12.7-25.67-28.6s7.38-28.8 25.77-28.8c18.61 0 25.48 13 25.48 29s-7.38 28.4-25.58 28.4zm.21-53.2c-15.37 0-20.53 11.4-20.53 24.4s5 24.6 20.42 24.6 20.22-11.7 20.22-24.5-4.85-24.5-20.11-24.5zm78.24 51.8h-3.33a1.79 1.79 0 0 1-.91-.4l-23.05-26.2c-.21-.2-.41-.3-.41-.5a2.23 2.23 0 0 0-1.41-.2v26.2c0 1.6-3.24 1.1-4.15 1.1a1.12 1.12 0 0 1-1.11-1.1V22a1.13 1.13 0 0 1 1.11-1.2h13c4.86 0 9.61.6 13.25 3.9a14 14 0 0 1 4.34 10.4c0 10-8 14.4-17.59 14.4l21.48 24.4a1.74 1.74 0 0 1 .6 1.2c0 .9-1.11 1.1-1.82 1.1zM468 25.1h-8.79v20.3H468c7 0 12.34-3.2 12.34-10.3s-5.5-10-12.34-10zm68.4 51.1H507a1.12 1.12 0 0 1-1.12-1.1V22a1.14 1.14 0 0 1 1.12-1.2h27.7c1.61 0 1.11 2.3 1.11 3.2a1.12 1.12 0 0 1-1.11 1.1h-23.57v19.6h19.11c1.72 0 1.21 2.2 1.21 3.2a1.14 1.14 0 0 1-1.21 1.1h-19.11v23.1h25.27c1.62 0 1.12 2.2 1.12 3.2a1.11 1.11 0 0 1-1.12.9zm18.61 0c-1.62 0-2.43-.6-2.43-2.2s.81-2.2 2.32-2.2 2.43.7 2.43 2.2-.81 2.2-2.33 2.2zm18-25.5c-1.42 0-1.72-.6-1.72-1.9 0-1.1.61-1.6 1.72-1.6 1.31 0 1.72.5 1.72 1.8s-.42 1.7-1.73 1.7zm.71 25.5h-1.42a.54.54 0 0 1-.5-.5V55.9a.54.54 0 0 1 .5-.5h1.42a.56.56 0 0 1 .6.5v19.8a.56.56 0 0 1-.61.5zm22.14 0c-3.44 0-5.26-2-5.26-5.3V56.8h-2.53c-.71 0-.5-.8-.5-1.2a.54.54 0 0 1 .5-.5h2.43v-5.5a.54.54 0 0 1 .5-.5h1.52a.55.55 0 0 1 .51.5v5.5h6.26c.71 0 .51.8.51 1.2a.54.54 0 0 1-.51.5h-6.16V71c0 2.1 1 3.5 3.33 3.5a8.34 8.34 0 0 0 2.73-.6l.41-.1c.5 0 .4.7.4 1 0 1.3-3.33 1.4-4.14 1.4zm-449.78 39.7h-8.9a.27.27 0 0 1-.3-.3v-18a.27.27 0 0 1 .3-.3h2a.27.27 0 0 1 .3.3v16.2H146a.32.32 0 0 1 .3.3v1.4a.3.3 0 0 1-.22.4zm19 0h-9.91a.27.27 0 0 1-.3-.3v-18a.27.27 0 0 1 .3-.3h9.4a.27.27 0 0 1 .3.3V99a.32.32 0 0 1-.3.3h-7.07v5.7h5.67a.27.27 0 0 1 .3.3v1.4a.27.27 0 0 1-.3.3h-5.67v6.9h7.59a.32.32 0 0 1 .3.3v1.4a.32.32 0 0 1-.3.3zm22.94 0h-1.61c-.81 0-1-.6-1.42-1.3l-8.49-14.3v15.3a.27.27 0 0 1-.3.3h-1.42a.27.27 0 0 1-.3-.3v-18a.27.27 0 0 1 .3-.3h2.43c.3 0 .4.1.6.4l8.5 14.5V97.6a.27.27 0 0 1 .3-.3H188c.21 0 .31.1.31.3v17.9c.03.2-.07.4-.31.4zm22-16.6h-5.15v16.2c0 .2-.1.3-.31.3h-2a.27.27 0 0 1-.3-.3V99.3h-5.16a.27.27 0 0 1-.3-.3v-1.4a.27.27 0 0 1 .3-.3h12.94c.21 0 .31.1.31.3V99c0 .2-.1.3-.31.3zm11.22 16.6h-2a.27.27 0 0 1-.3-.3v-18a.27.27 0 0 1 .3-.3h2c.21 0 .31.1.31.3v17.9a.44.44 0 0 1-.26.4zm36.2 0h-1.82c-.1 0-.21-.1-.31-.2l-2-6.5H247l-2.12 6.5c0 .1-.1.2-.3.2h-1.62c-.3 0-.41-.1-.41-.4 0-.1.11-.2.11-.3l5.76-16.9c.5-1.6.71-1.3 2.42-1.3 1 0 1.12.3 1.42 1.2l5.56 16.9.1.3v.1c.08.3-.23.4-.43.4zM250.11 99l-2.63 8.3h5.25zm41.55 16.3a10.87 10.87 0 0 1-4.35.8c-5.56 0-9.3-3.2-9.3-9.1s3.64-9.9 9.4-9.9a12 12 0 0 1 4.59.9c.4.2.5.2.5.7v1.3c0 .2 0 .4-.2.4a.85.85 0 0 1-.5-.3 6.63 6.63 0 0 0-3.84-1.1c-4.76 0-7.08 3.3-7.08 7.9 0 4.4 2.42 7.1 6.77 7.1a8.46 8.46 0 0 0 4.45-1.2.37.37 0 0 1 .3-.1c.31 0 .21 1.3.21 1.6-.15.7-.45.8-.95 1zm16.88 1c-2.63 0-4.75-.6-6.47-2.8-1.62-2-1.92-4.3-1.92-6.8s.3-4.9 1.92-7c1.82-2.2 4-2.7 6.77-2.7 5.76 0 8.29 4 8.29 9.6 0 6-2.63 9.7-8.59 9.7zm.1-17.2a5.11 5.11 0 0 0-4.45 2.3 8.86 8.86 0 0 0-1.31 5.3 9.17 9.17 0 0 0 1.31 5.4 5.11 5.11 0 0 0 4.45 2.3c4.35 0 5.76-3.7 5.76-7.6s-1.41-7.7-5.76-7.7zm31.54 16.8h-1.62c-.81 0-1-.6-1.41-1.3l-8.49-14.3v15.3a.27.27 0 0 1-.31.3h-1.41a.27.27 0 0 1-.31-.3v-18a.27.27 0 0 1 .31-.3h2.42c.31 0 .41.1.61.4l8.49 14.5V97.6c0-.2.1-.3.31-.3h1.41a.27.27 0 0 1 .3.3v17.9c0 .2-.1.4-.3.4zm22.14-16.6h-5.16v16.2a.27.27 0 0 1-.3.3h-2a.27.27 0 0 1-.3-.3V99.3h-5.16a.27.27 0 0 1-.3-.3v-1.4a.27.27 0 0 1 .3-.3h12.94a.27.27 0 0 1 .3.3V99a.32.32 0 0 1-.32.3zm20 16.6h-1.82c-.1 0-.21-.1-.31-.2l-2-6.5h-6.47l-2.12 6.5c0 .1-.1.2-.3.2h-1.62c-.31 0-.41-.1-.41-.4 0-.1.1-.2.1-.3l5.77-16.9c.5-1.6.7-1.3 2.42-1.3 1 0 1.12.3 1.42 1.2l5.56 16.9.1.3v.1c.1.3-.1.4-.3.4zM375 99l-2.63 8.3h5.26zm25.88.3h-5.16v16.2a.27.27 0 0 1-.3.3h-2c-.21 0-.31-.1-.31-.3V99.3h-5.21c-.21 0-.31-.1-.31-.3v-1.4c0-.2.1-.3.31-.3h12.94a.27.27 0 0 1 .3.3V99a.32.32 0 0 1-.3.3zm19.91 0h-5.19v16.2c0 .2-.1.3-.31.3h-2a.27.27 0 0 1-.3-.3V99.3h-5.16a.27.27 0 0 1-.3-.3v-1.4a.27.27 0 0 1 .3-.3h12.94a.27.27 0 0 1 .31.3V99a.33.33 0 0 1-.33.3zm15.67 17c-2.63 0-4.75-.6-6.47-2.8-1.62-2-1.92-4.3-1.92-6.8s.3-4.9 1.92-7c1.82-2.2 4.05-2.7 6.78-2.7 5.76 0 8.28 4 8.28 9.6-.1 6-2.62 9.7-8.59 9.7zm0-17.2a5.12 5.12 0 0 0-4.45 2.3 8.86 8.86 0 0 0-1.31 5.3 9.17 9.17 0 0 0 1.31 5.4 5.12 5.12 0 0 0 4.45 2.3c4.35 0 5.76-3.7 5.76-7.6s-1.41-7.7-5.76-7.7zm38 17.2c-2.63 0-4.75-.6-6.47-2.8-1.61-2-1.92-4.3-1.92-6.8s.31-4.9 1.92-7c1.82-2.2 4.05-2.7 6.78-2.7 5.76 0 8.29 4 8.29 9.6-.1 6-2.63 9.7-8.6 9.7zm0-17.2a5.1 5.1 0 0 0-4.44 2.3 8.79 8.79 0 0 0-1.32 5.3 9.1 9.1 0 0 0 1.32 5.4 5.1 5.1 0 0 0 4.44 2.3c4.35 0 5.77-3.7 5.77-7.6s-1.42-7.7-5.77-7.7zm31.65 16.8h-1.62c-.81 0-1-.6-1.42-1.3l-8.49-14.3v15.3a.27.27 0 0 1-.3.3h-1.42a.27.27 0 0 1-.3-.3v-18a.27.27 0 0 1 .3-.3h2.43c.3 0 .4.1.61.4l8.49 14.5V97.6a.27.27 0 0 1 .3-.3h1.42a.27.27 0 0 1 .3.3v17.9a.45.45 0 0 1-.33.4zm20.11 0h-8.82a.27.27 0 0 1-.31-.3v-18a.27.27 0 0 1 .31-.3h2a.27.27 0 0 1 .3.3v16.2h6.47a.32.32 0 0 1 .31.3v1.4c.02.2-.08.4-.29.4zm11.22 0h-2a.27.27 0 0 1-.3-.3v-18a.27.27 0 0 1 .3-.3h2c.21 0 .31.1.31.3v17.9a.44.44 0 0 1-.34.4zm24.47 0h-1.62c-.81 0-1-.6-1.41-1.3l-8.5-14.3v15.3a.27.27 0 0 1-.3.3h-1.41c-.21 0-.31-.1-.31-.3v-18c0-.2.1-.3.31-.3h2.42c.31 0 .41.1.61.4l8.49 14.5V97.6a.27.27 0 0 1 .3-.3h1.42a.27.27 0 0 1 .3.3v17.9a.45.45 0 0 1-.33.4zm21.23 0h-9.94a.27.27 0 0 1-.3-.3v-18a.27.27 0 0 1 .3-.3h9.4c.21 0 .31.1.31.3V99a.33.33 0 0 1-.31.3h-7.07v5.7h5.66a.27.27 0 0 1 .3.3v1.4a.27.27 0 0 1-.3.3h-5.66v6.9h7.58a.32.32 0 0 1 .3.3v1.4a.45.45 0 0 1-.3.3z" fill="#53575a"/></svg>