<svg width="600" height="138.23" xmlns="http://www.w3.org/2000/svg"><path d="M145.71 116.72H137a.31.31 0 0 1-.29-.3v-18a.3.3 0 0 1 .29-.29h2a.3.3 0 0 1 .29.29v16.35h6.44a.34.34 0 0 1 .3.37v1.4c.07.08-.08.23-.3.23zm15.75 0h-9.83a.32.32 0 0 1-.3-.3v-18a.31.31 0 0 1 .3-.29H161a.31.31 0 0 1 .29.29v1.41a.27.27 0 0 1-.29.29h-7v5.7h5.62a.32.32 0 0 1 .3.29v1.41a.32.32 0 0 1-.3.3H154v6.87h7.54c.23 0 .3.15.3.37v1.41a.32.32 0 0 1-.3.3zm19.53 0h-1.55c-.82 0-1-.67-1.41-1.26l-8.43-14.35v15.38a.32.32 0 0 1-.3.3h-1.4a.32.32 0 0 1-.3-.3v-18a.32.32 0 0 1 .3-.3h2.37a.67.67 0 0 1 .59.37l8.43 14.57V98.45a.32.32 0 0 1 .3-.3H181a.32.32 0 0 1 .3.3v18a.27.27 0 0 1-.3.27zm18.71-16.65h-5.1v16.35a.32.32 0 0 1-.3.3h-2a.32.32 0 0 1-.3-.3v-16.35h-5.1a.31.31 0 0 1-.3-.29v-1.41a.31.31 0 0 1 .3-.29h12.8a.31.31 0 0 1 .3.29v1.41a.27.27 0 0 1-.3.29zm7.92 16.65h-2a.32.32 0 0 1-.3-.3v-18a.31.31 0 0 1 .3-.29h2a.3.3 0 0 1 .29.29v18a.31.31 0 0 1-.29.3zm16.79 0h-8.73a.32.32 0 0 1-.3-.3v-18a.31.31 0 0 1 .3-.29h2a.31.31 0 0 1 .29.29v16.35h6.44a.33.33 0 0 1 .29.37v1.4a.32.32 0 0 1-.29.23zm14.64 0h-8.73a.32.32 0 0 1-.29-.3v-18a.31.31 0 0 1 .29-.29h2a.31.31 0 0 1 .3.29v16.35h6.43a.34.34 0 0 1 .3.37v1.4a.33.33 0 0 1-.3.18zm19.38 0h-1.85c-.15 0-.22-.08-.29-.23l-2.07-6.58h-6.37l-2.07 6.58c0 .15-.14.23-.29.23h-1.56c-.29 0-.37-.08-.37-.37 0-.08.08-.23.08-.3l5.77-16.94c.52-1.62.66-1.26 2.36-1.26 1 0 1.11.3 1.41 1.26l5.55 16.94.07.22v.15c.08.3-.15.3-.37.3zm-7.32-16.94l-2.59 8.36h5.25zm16.71 17.16a11.37 11.37 0 0 1-3.92-.67c-.29-.15-.51-.22-.51-.59V114c0-.22.07-.37.29-.37s.3.15.45.22a6.88 6.88 0 0 0 3.62 1.11c1.7 0 3.18-.89 3.18-2.88a3 3 0 0 0-1.7-2.81l-3.18-2.3a5 5 0 0 1-2.44-4.29c0-3.4 2.51-4.88 5.47-4.88a9.88 9.88 0 0 1 3.85.74c.29.15.29.15.29.52v1.63c0 .22 0 .44-.22.44s-.29-.15-.44-.22a5.47 5.47 0 0 0-3.33-1.11c-1.55 0-3 .81-3 2.59a2.62 2.62 0 0 0 1.48 2.36L271 107c1.62 1.11 2.73 2.36 2.73 4.58 0 3.7-2.81 5.33-5.92 5.33zm28.92.29c-2.66 0-4.73-.59-6.5-2.73a10.69 10.69 0 0 1-1.93-6.88 10.85 10.85 0 0 1 1.93-7c1.77-2.22 4.06-2.74 6.73-2.74 5.77 0 8.28 4 8.28 9.61 0 5.85-2.59 9.69-8.51 9.69zm.08-17.38a5.17 5.17 0 0 0-4.44 2.29 9.08 9.08 0 0 0-1.33 5.4 9.66 9.66 0 0 0 1.26 5.4 5.15 5.15 0 0 0 4.43 2.3c4.29 0 5.7-3.78 5.7-7.7s-1.33-7.69-5.62-7.69zM325 116.72h-1.55c-.82 0-1-.67-1.41-1.26l-8.43-14.35v15.38a.32.32 0 0 1-.3.3h-1.4a.32.32 0 0 1-.3-.3v-18a.32.32 0 0 1 .3-.3h2.36a.67.67 0 0 1 .6.37l8.43 14.57V98.45a.32.32 0 0 1 .29-.3H325a.32.32 0 0 1 .3.3v18a.33.33 0 0 1-.3.27zm16.79 0h-8.73a.31.31 0 0 1-.29-.3v-18a.3.3 0 0 1 .29-.29h2a.3.3 0 0 1 .29.29v16.35h6.44a.34.34 0 0 1 .3.37v1.4a.33.33 0 0 1-.3.23zm7.91 0h-2a.32.32 0 0 1-.3-.3v-18a.31.31 0 0 1 .3-.29h2a.31.31 0 0 1 .3.29v18a.32.32 0 0 1-.3.3zm21.08 0h-1.55c-.81 0-1-.67-1.41-1.26l-8.43-14.35v15.38a.32.32 0 0 1-.29.3h-1.41a.31.31 0 0 1-.29-.3v-18a.31.31 0 0 1 .29-.3h2.37a.67.67 0 0 1 .59.37l8.43 14.57V98.45a.32.32 0 0 1 .3-.3h1.4a.32.32 0 0 1 .3.3v18a.33.33 0 0 1-.3.23zm17.9 0h-9.83a.32.32 0 0 1-.3-.3v-18a.31.31 0 0 1 .3-.29h9.31a.31.31 0 0 1 .3.29v1.41a.27.27 0 0 1-.3.29h-7v5.7h5.62a.32.32 0 0 1 .3.29v1.41a.32.32 0 0 1-.3.3h-5.62v6.87h7.55c.22 0 .29.15.29.37v1.41a.48.48 0 0 1-.37.3z" fill="#53575a"/><g fill="#32b6d0"><path d="M9.1 62.13a35 35 0 0 0 6.36 21.6c8.65 12 25.15 18 44.38 14.27a57.94 57.94 0 0 0 12.79-3.92c-1.85.3-3.7.59-5.54.74a54.3 54.3 0 0 1-21.53-2.22 40.4 40.4 0 0 1-20.63-14.49 38.72 38.72 0 0 1-7.1-23.6c.14-9 3-18.49 8.28-27.44.81-1.33 1.63-2.59 2.51-3.85C17 33.8 9.47 47.93 9.1 62.13z"/><path d="M31 28.33a49.36 49.36 0 0 0-7.47 24.26c-.37 15.9 8.58 29.51 25 34.76a44.84 44.84 0 0 0 11.75 2.15c-1.55-.52-3.11-1.19-4.58-1.85A37.92 37.92 0 0 1 41 75.37a38.77 38.77 0 0 1-7.1-24 55.82 55.82 0 0 1 8.06-26.56A67.84 67.84 0 0 1 62.35 2.66C63.68 1.78 65 .89 66.42 0A64.52 64.52 0 0 0 31 28.33zm26.48 108.8a69.33 69.33 0 0 0 26-11.17C99.19 115 110 98.15 110.43 81.14a38 38 0 0 0-1.33-11 40.31 40.31 0 0 1-.52 5 58.69 58.69 0 0 1-7.69 20.63 75.42 75.42 0 0 1-21.45 22.71A77 77 0 0 1 51 130.84a57.29 57.29 0 0 1-29.07-1.18 32.76 32.76 0 0 1-3.77-1.41c9.06 8.36 23.26 11.99 39.31 8.88z"/><path d="M24.41 124.93A52.16 52.16 0 0 0 50.15 126c17.9-3.48 35.5-15.09 45.49-31.66a54.75 54.75 0 0 0 5.25-11.47c-1 1.63-2.07 3.18-3.26 4.74a75.06 75.06 0 0 1-17.45 16.71 75.76 75.76 0 0 1-28.85 12.43 58.38 58.38 0 0 1-28.25-1.11C14.28 112.87 7 107.84 2 100.89a28.67 28.67 0 0 1-2-3.18c2.22 12.57 10.65 22.78 24.41 27.22z"/><path d="M6.73 97.49a36.22 36.22 0 0 0 18.49 13.09c15.31 5 35.06 1.7 51.85-10.06a72.21 72.21 0 0 0 10.43-8.88c-1.7 1.11-3.33 2.15-5.1 3.18a77.16 77.16 0 0 1-22.49 8.36c-10.06 1.92-20 1.55-28.55-1.26A40.45 40.45 0 0 1 11 87.65a38.92 38.92 0 0 1-7.38-24.34c.08-1.33.15-2.73.3-4.06C-1.55 72.63-1 86.69 6.73 97.49z"/></g><path d="M162.28 76.63h-25a1.14 1.14 0 0 1-1.11-1.11v-53.4a1.15 1.15 0 0 1 1.11-1.19h3a1.17 1.17 0 0 1 1.18 1.19v50.22h20.86c1.55 0 1.11 2.36 1.11 3.18a1.14 1.14 0 0 1-1.15 1.11zm47.26 0h-29.29a1.14 1.14 0 0 1-1.11-1.11v-53.4a1.16 1.16 0 0 1 1.11-1.19h27.59c1.55 0 1.11 2.37 1.11 3.18a1.14 1.14 0 0 1-1.11 1.11h-23.45V44.9h19c1.7 0 1.26 2.14 1.26 3.18a1.18 1.18 0 0 1-1.26 1.11h-19v23.15h25.15c1.55 0 1.11 2.29 1.11 3.18a1.14 1.14 0 0 1-1.11 1.11zm57.92 0h-3.11a2.49 2.49 0 0 1-2.52-1.48l-30.17-47.27v47.71c0 1.48-2.22 1.11-3.18 1.11a1.13 1.13 0 0 1-1.11-1.11v-53.4a1.15 1.15 0 0 1 1.11-1.19h3.32c1.48 0 1.63.22 2.45 1.4l30 47.26V22.12c0-1.71 2.22-1.19 3.26-1.19a1.11 1.11 0 0 1 1.11 1.19v53.4a1.27 1.27 0 0 1-1.16 1.11zm33.28.66a30.8 30.8 0 0 1-12.43-2.59c-1-.44-1.4-.66-1.4-1.77v-2.52c0-.74.29-1.33 1.11-1.33a3.15 3.15 0 0 1 1.4.67 23 23 0 0 0 12.21 3.55c6.36 0 11.53-3.33 11.53-9.84 0-5.69-3-7.54-7.54-10.58l-10.43-7.1c-4.36-3-7.47-6.58-7.47-11.9a11.71 11.71 0 0 1 4.07-9.32c3.62-3.26 7.54-3.92 12.43-3.92 2.14 0 12.5.51 12.5 3.84v2.15c0 .66-.3 1.18-1 1.18a2.13 2.13 0 0 1-1-.44 23.3 23.3 0 0 0-10.57-3c-5.4 0-11.1 2.67-11.1 8.51 0 3.85 2.52 6.36 5.55 8.43l11 7.62a24.17 24.17 0 0 1 6.29 5.33 13.55 13.55 0 0 1 2.66 8.35c.07 9.77-8.28 14.72-17.75 14.72zm70.19-52.07h-16.49v50.3a1.14 1.14 0 0 1-1.11 1.11h-3a1.14 1.14 0 0 1-1.11-1.11v-50.3h-16.45c-1.56 0-1.11-2.22-1.11-3.1a1.15 1.15 0 0 1 1.11-1.19h38.16c1.55 0 1.11 2.37 1.11 3.18a1.14 1.14 0 0 1-1.11 1.11zM407.54 78C389.35 78 382 65.24 382 49.26s7.39-28.92 25.66-28.92c18.49 0 25.3 13.09 25.3 29.22S425.66 78 407.54 78zm.15-53.47c-15.24 0-20.41 11.53-20.41 24.55s5 24.71 20.26 24.71 20.12-11.76 20.12-24.63-4.81-24.63-20-24.63zm77.81 52.1h-3.25a1.16 1.16 0 0 1-.89-.45l-22.93-26.33c-.15-.15-.37-.29-.44-.52a3.1 3.1 0 0 0-1.41-.14v26.33c0 1.62-3.18 1.11-4.14 1.11a1.14 1.14 0 0 1-1.11-1.11v-53.4a1.15 1.15 0 0 1 1.11-1.19h12.94c4.89 0 9.54.59 13.17 3.92a14 14 0 0 1 4.36 10.43c0 10.06-7.91 14.5-17.53 14.5l21.31 24.48a1.55 1.55 0 0 1 .59 1.18c0 1-1 1.19-1.78 1.19zm-20.12-51.41h-8.8v20.42h8.8c7 0 12.28-3.18 12.28-10.36s-5.47-10.06-12.28-10.06zm68 51.41h-29.24a1.14 1.14 0 0 1-1.14-1.11v-53.4a1.16 1.16 0 0 1 1.11-1.19h27.59c1.55 0 1.11 2.37 1.11 3.18a1.14 1.14 0 0 1-1.11 1.11h-23.34V44.9h19c1.7 0 1.18 2.14 1.18 3.18a1.15 1.15 0 0 1-1.18 1.11h-19v23.15h25.14c1.56 0 1.11 2.29 1.11 3.18a1.26 1.26 0 0 1-1.18 1.11zm18.49.07c-1.63 0-2.37-.59-2.37-2.22s.82-2.22 2.3-2.22a2.07 2.07 0 0 1 2.36 2.22c.05 1.52-.68 2.22-2.24 2.22zm27.2-12.35h-14.94c.07 2.37.14 4.73 1.55 6.73A7.35 7.35 0 0 0 572 74a9.54 9.54 0 0 0 5.1-1.48 3.93 3.93 0 0 1 .74-.37c.52 0 .37 1 .37 1.33 0 1.78-5.25 2.29-6.51 2.29-6.58 0-10.35-4.43-10.35-10.8 0-5.76 3.33-11.09 9.54-11.09a8.44 8.44 0 0 1 8.58 8.73v1.11c.15.29-.15.59-.44.59zm-8.21-8.58c-3.85 0-6.36 3.18-6.66 6.8h12.94c-.22-3.84-2.29-6.8-6.28-6.8zm22.63 20.12a9.77 9.77 0 0 1-5-1.26c-.44-.22-.52-.3-.52-.81v-.74c0-.23.08-.45.37-.45a2.5 2.5 0 0 1 .67.22 8.45 8.45 0 0 0 4.14 1.26c2.29 0 4.29-1 4.29-3.55 0-1.92-1.18-2.73-2.66-3.77l-3-2c-2.07-1.4-3.48-2.51-3.48-5.17 0-3.78 2.66-5.63 6.22-5.63 1 0 5 .52 5 2v.74a.41.41 0 0 1-.36.44 1.92 1.92 0 0 1-1-.44 7.33 7.33 0 0 0-3.77-1c-2.07 0-4 1-4 3.32 0 1.78 1 2.37 2.44 3.33l3.62 2.44c2.15 1.48 3.48 2.59 3.48 5.33.07 3.84-3 5.77-6.51 5.77z" fill="#53575a"/></svg>