<svg xmlns="http://www.w3.org/2000/svg" viewBox="0 0 53.108 54.885" width="53.108" height="54.885"><defs><style>.b{fill:#fff}</style></defs><path class="b" d="M41.005 18.159a11.8 11.8 0 0 1-3.414.969 6.169 6.169 0 0 0 2.615-3.4 12.038 12.038 0 0 1-3.781 1.479 5.842 5.842 0 0 0-4.342-1.948 6.049 6.049 0 0 0-5.948 6.143 6.529 6.529 0 0 0 .154 1.406 16.675 16.675 0 0 1-12.26-6.4 6.295 6.295 0 0 0 1.841 8.209 5.789 5.789 0 0 1-2.694-.769v.075a6.105 6.105 0 0 0 4.771 6.032 5.833 5.833 0 0 1-2.675.106 6 6 0 0 0 5.567 4.269 11.684 11.684 0 0 1-7.377 2.631 12.071 12.071 0 0 1-1.414-.084 16.519 16.519 0 0 0 9.135 2.76c10.945 0 16.924-9.366 16.924-17.474 0-.261 0-.524-.017-.787a12.243 12.243 0 0 0 2.973-3.183z"/></svg>
